<?xml version="1.0" encoding="utf-8"?>
<!-- Generator: Adobe Illustrator 26.0.1, SVG Export Plug-In . SVG Version: 6.00 Build 0)  -->
<svg version="1.1" id="Слой_1" xmlns="http://www.w3.org/2000/svg" xmlns:xlink="http://www.w3.org/1999/xlink" x="0px" y="0px"
	 viewBox="0 0 800 800" style="enable-background:new 0 0 800 800;" xml:space="preserve">
<style type="text/css">
	.st0{fill:#FFFFFF;}
	.st1{fill:#4338CA;}
</style>
<rect class="st0" width="800" height="800"/>
<g>
	<path class="st1" d="M147.5,192.2c29.8-5,72.6-7.8,113.2-7.8c63.1,0,103.8,9.5,132.2,30.8c23.1,16.8,35.9,42.5,35.9,71.6
		c0,49.8-38,82.8-86.1,96.2v1.7c35.3,10.1,56.3,36.9,67.1,76.1c14.9,52.6,25.8,88.9,35.3,103.5h-61c-7.5-10.6-17.6-43.1-30.5-90.1
		c-13.6-52-38-71.6-91.5-73.3h-55.6v163.3h-59V192.2z M206.5,363.9h60.4c63.1,0,103.1-28.5,103.1-71.6c0-48.7-42.7-69.9-105.1-70.5
		c-28.5,0-48.8,2.2-58.3,4.5V363.9z"/>
</g>
<g>
	<path class="st1" d="M492.4,315.2c17.3-3,44.5-5.2,72.2-5.2c39.5,0,64.9,5.6,84,18.3C664.5,338,674,353,674,372.9
		c0,24.3-19.5,45.7-51.8,55.4v0.7c29.1,6,63.1,25.8,63.1,63.3c0,21.7-10.4,38.2-25.9,50.6c-21.3,16.1-55.8,23.6-105.8,23.6
		c-27.2,0-48.1-1.5-61.3-3V315.2z M531.9,418.5h35.9c41.8,0,66.3-18,66.3-42.3c0-29.6-27.2-41.2-67.2-41.2c-18.2,0-28.6,1.1-35,2.2
		V418.5z M531.9,539.5c7.7,1.1,19.1,1.5,33.1,1.5c40.9,0,78.5-12.4,78.5-49.1c0-34.5-35.9-48.7-79-48.7h-32.7V539.5z"/>
</g>
<g>
</g>
<g>
</g>
<g>
</g>
<g>
</g>
<g>
</g>
<g>
</g>
<g>
</g>
<g>
</g>
<g>
</g>
<g>
</g>
<g>
</g>
<g>
</g>
<g>
</g>
<g>
</g>
<g>
</g>
</svg>
